<?xml version="1.0" encoding="UTF-8"?>
<svg version="1.1" xmlns="http://www.w3.org/2000/svg" width="500" height="500">
<path d="M0 0 C165 0 330 0 500 0 C500 165 500 330 500 500 C335 500 170 500 0 500 C0 335 0 170 0 0 Z " fill="#FFFEFE" transform="translate(0,0)"/>
<path d="M0 0 C22.44 0 44.88 0 68 0 C68.495 3.96 68.495 3.96 69 8 C70.03125 7.21625 71.0625 6.4325 72.125 5.625 C77.33768808 1.66335706 82.47013303 0.7475233 88.9296875 0.8046875 C90.86328125 0.81435547 90.86328125 0.81435547 92.8359375 0.82421875 C94.18229442 0.84092537 95.52864859 0.85785521 96.875 0.875 C98.24478517 0.88504336 99.61457742 0.89416683 100.984375 0.90234375 C104.32299258 0.92585514 107.66151905 0.96172442 111 1 C111 6.61 111 12.22 111 18 C110.34 18 109.68 18 109 18 C108.608125 16.783125 108.21625 15.56625 107.8125 14.3125 C106.04683985 9.60684913 103.5042951 6.47862746 99.12109375 3.890625 C95.47157939 2.35823223 91.88057704 2.43037401 88 3 C85.30861457 4.44014926 85.30861457 4.44014926 84 7 C83.25229149 11.29932396 84.11528089 13.80016762 86.57763672 17.34521484 C89.49699344 20.74161029 93.21726605 23.24063686 96.8125 25.875 C113.36270436 38.01818374 113.36270436 38.01818374 115 46 C114.74420635 50.77481487 114.04221238 54.27083643 111 58 C102.64012225 64.38088014 94.39363781 65.98812754 84 65 C77.70548029 63.42637007 73.15148145 60.98177774 69 56 C68.67 58.97 68.34 61.94 68 65 C45.56 65 23.12 65 0 65 C1.32 64.01 2.64 63.02 4 62 C4.58017246 59.36371973 4.58017246 59.36371973 4.45410156 56.33520508 C4.45379944 55.17422806 4.45349731 54.01325104 4.45318604 52.8170929 C4.43254089 51.56389755 4.41189575 50.31070221 4.390625 49.01953125 C4.38496521 47.73640549 4.37930542 46.45327972 4.37347412 45.13127136 C4.35821488 41.72299955 4.31893221 38.31541161 4.2746582 34.90740967 C4.23371078 31.4286016 4.21546434 27.94968282 4.1953125 24.47070312 C4.15243703 17.64685482 4.0841831 10.82346025 4 4 C2.68 3.34 1.36 2.68 0 2 C0 1.34 0 0.68 0 0 Z " fill="#FF68C4" transform="translate(308,260)"/>
<path d="M0 0 C7.07988112 -0.12746075 14.15946305 -0.21462725 21.24023438 -0.2746582 C23.6456203 -0.29970084 26.05093089 -0.333745 28.45605469 -0.37719727 C31.92662206 -0.4382988 35.39617772 -0.46631363 38.8671875 -0.48828125 C39.93113739 -0.51408768 40.99508728 -0.5398941 42.09127808 -0.56648254 C50.80309997 -0.56970714 56.45691131 2.21219558 63.75 6.6875 C70.21239193 13.32940282 74.23969956 21.84001484 74.4375 31.125 C74.25661168 41.03994094 70.59316078 49.2401768 63.76171875 56.3828125 C57.11738084 62.48204952 51.27238048 64.31196542 42.41796875 64.1953125 C41.60378983 64.1924826 40.7896109 64.18965271 39.95075989 64.18673706 C37.362854 64.17558584 34.77530042 64.15049083 32.1875 64.125 C30.42773939 64.11496365 28.66797333 64.10583894 26.90820312 64.09765625 C22.60533402 64.0756631 18.30272664 64.04116836 14 64 C14.65063416 63.6218364 15.30126831 63.24367279 15.97161865 62.85404968 C18.23626851 61.15695467 18.23626851 61.15695467 18.48101807 58.43733215 C18.47213562 57.41363022 18.46325317 56.38992828 18.45410156 55.33520508 C18.45379944 54.17422806 18.45349731 53.01325104 18.45318604 51.8170929 C18.43254089 50.56389755 18.41189575 49.31070221 18.390625 48.01953125 C18.38496521 46.73640549 18.37930542 45.45327972 18.37347412 44.13127136 C18.35821488 40.72299955 18.31893221 37.31541161 18.2746582 33.90740967 C18.23371078 30.4286016 18.21546434 26.94968282 18.1953125 23.47070312 C18.15243703 16.64685482 18.0841831 9.82346025 18 3 C17.01 2.67 16.02 2.34 15 2 C14.21625 2.78375 13.4325 3.5675 12.625 4.375 C11.08333333 5.91666667 9.54166667 7.45833333 8 9 C5 5.25 5 5.25 5 3 C2.525 2.01 2.525 2.01 0 1 C0 0.67 0 0.34 0 0 Z " fill="#FF6CC6" transform="translate(181,261)"/>
<path d="M0 0 C5.26524445 -0.09943082 10.52993343 -0.17173199 15.79589844 -0.21972656 C17.58440684 -0.23974959 19.37285054 -0.26697654 21.16113281 -0.30175781 C23.74300162 -0.35068955 26.3239995 -0.37306165 28.90625 -0.390625 C30.09112 -0.42159271 30.09112 -0.42159271 31.29992676 -0.45318604 C36.98437469 -0.45544523 41.24305915 0.84228877 46 4 C49.52730738 7.61549006 50.28488754 10.53024708 50.5 15.4375 C50.28962297 20.76946956 49.25482518 23.77752409 46 28 C43.25 29.9375 43.25 29.9375 41 31 C41.66386719 31.268125 42.32773438 31.53625 43.01171875 31.8125 C48.59013766 34.28817788 52.32351869 36.47646078 55.2265625 41.953125 C56.90686216 46.39997865 56.45303603 49.7415666 54.875 54.125 C51.66293169 59.05017141 47.62507069 62.3148861 42 64 C38.77220624 64.26568756 35.56099395 64.23273229 32.32421875 64.1953125 C30.93648003 64.19106766 30.93648003 64.19106766 29.52070618 64.18673706 C26.57617058 64.17557392 23.63194312 64.15047637 20.6875 64.125 C18.68685336 64.11496521 16.68620194 64.10584023 14.68554688 64.09765625 C9.7902465 64.07564722 4.89517543 64.04114391 0 64 C0.64932495 63.62085449 1.2986499 63.24170898 1.96765137 62.85107422 C4.22971235 61.15831065 4.22971235 61.15831065 4.50793457 58.45751953 C4.51111694 57.44286621 4.51429932 56.42821289 4.51757812 55.3828125 C4.53018677 54.23151855 4.54279541 53.08022461 4.55578613 51.89404297 C4.54768921 50.65025879 4.53959229 49.40647461 4.53125 48.125 C4.5350769 46.84898926 4.53890381 45.57297852 4.54284668 44.25830078 C4.54557137 41.55771827 4.5401796 38.85857965 4.52148438 36.15820312 C4.49869328 32.69762015 4.51181627 29.23827792 4.53577423 25.77774048 C4.55370699 22.47678247 4.54115 19.1759742 4.53125 15.875 C4.54339539 14.00932373 4.54339539 14.00932373 4.55578613 12.10595703 C4.54317749 10.95466309 4.53056885 9.80336914 4.51757812 8.6171875 C4.51439575 7.60253418 4.51121338 6.58788086 4.50793457 5.54248047 C4.22971235 2.84168935 4.22971235 2.84168935 1.96765137 1.14892578 C1.31832642 0.76978027 0.66900146 0.39063477 0 0 Z " fill="#FF6EC7" transform="translate(92,261)"/>
<path d="M0 0 C6.93 0 13.86 0 21 0 C21 20.79 21 41.58 21 63 C29.84404349 61.53106027 29.84404349 61.53106027 35 56 C41.82607163 43.27868468 43.0186071 29.72702165 39.04296875 15.765625 C36.80526216 9.83193112 34.08228781 5.27250922 28.625 1.9375 C27.75875 1.628125 26.8925 1.31875 26 1 C26 0.67 26 0.34 26 0 C34.92119983 -0.67048684 41.36260286 1.13442834 48.625 6.375 C55.6954196 12.98178553 59.40770314 22.10914727 59.75 31.625 C59.26283428 41.17941344 56.08551044 50.38685692 49 57 C41.70610743 61.95235403 36.46625822 64.15521495 27.61328125 64.09765625 C26.79627243 64.0962413 25.97926361 64.09482635 25.13749695 64.09336853 C22.52912732 64.08777294 19.92084366 64.07522129 17.3125 64.0625 C15.54362103 64.05748443 13.77474072 64.05292162 12.00585938 64.04882812 C7.67053981 64.03780496 3.33528448 64.02054338 -1 64 C-0.18797119 63.5978125 0.62405762 63.195625 1.46069336 62.78125 C5.56117012 58.29008269 4.69419447 53.36855077 4.62890625 47.5 C4.63131821 46.27216797 4.63373016 45.04433594 4.63621521 43.77929688 C4.63523579 41.18356089 4.6218199 38.58780427 4.59692383 35.9921875 C4.56262852 32.01490447 4.57625943 28.03984357 4.59570312 24.0625 C4.58880469 21.54165719 4.57913234 19.02082013 4.56640625 16.5 C4.57136612 15.30826172 4.57632599 14.11652344 4.58143616 12.88867188 C4.55768166 11.22674805 4.55768166 11.22674805 4.53344727 9.53125 C4.5241494 8.07041992 4.5241494 8.07041992 4.5146637 6.58007812 C4.12562139 3.38546221 4.12562139 3.38546221 0 0 Z " fill="#FF68C4" transform="translate(252,261)"/>
<path d="M0 0 C8.50840075 0 10.93235591 0.78543063 17 6 C19.86436039 9.40626641 21.3000164 12.75348219 22.8125 16.875 C26.6126697 26.51165676 33.89976688 31.71958572 42.13769531 37.52490234 C47.83094726 41.60034706 53.00021091 45.77845739 55.125 52.625 C54.97166051 56.76516611 53.93160237 58.15215769 51 61 C48.67404054 62.16297973 47.21276769 62.16600691 44.625 62.1875 C43.85414063 62.20167969 43.08328125 62.21585937 42.2890625 62.23046875 C39.78165112 61.97801607 38.16738098 61.25193467 36 60 C36.3958515 57.14986919 36.65624427 55.39875665 38.5625 53.1875 C40.72319713 49.89948262 40.69051168 46.82135442 40 43 C37.85091353 39.64742511 36.42643319 39.10854663 32.5625 38.125 C27.90482246 37.85198868 27.90482246 37.85198868 24 40 C23.05148702 42.45366503 22.3928222 44.92061027 21.7265625 47.46484375 C19.9952946 53.50566561 16.53356612 56.68121642 11.48828125 60.01953125 C9 61 9 61 0 62 C0 52.1 0 42.2 0 32 C7.96837945 33.13833992 7.96837945 33.13833992 12 38 C12.33 38.66 12.66 39.32 13 40 C13 34.06 13 28.12 13 22 C11.7315625 23.7015625 11.7315625 23.7015625 10.4375 25.4375 C8.99609375 27.37109375 8.99609375 27.37109375 7 29 C4.69 29.33 2.38 29.66 0 30 C0 20.1 0 10.2 0 0 Z " fill="#FFFCFE" transform="translate(353,262)"/>
<path d="M0 0 C18.48 0 36.96 0 56 0 C56 5.28 56 10.56 56 16 C53 12 53 12 51.640625 10.18359375 C46.35454243 3.54629344 41.46704205 2.20957744 33 1 C33 10.9 33 20.8 33 31 C40.93408006 29.36861922 40.93408006 29.36861922 45 24 C45.99 23.01 46.98 22.02 48 21 C48 28.26 48 35.52 48 43 C46 42 46 42 44.625 39.625 C41.51721269 34.60472818 38.73089073 33.91029691 33 32 C33 42.23 33 52.46 33 63 C42.94302242 61.01139552 47.24880731 59.93267958 53 52 C53.99 50.68 54.98 49.36 56 48 C56 52.95 56 57.9 56 63 C60.44536093 60.00793014 63.84778899 57.41309542 67 53 C67.45375 54.11375 67.9075 55.2275 68.375 56.375 C70.46914159 61.04654662 71.36945901 61.68472951 76 64 C54.88 64 33.76 64 12 64 C13.32 63.34 14.64 62.68 16 62 C16.0505963 55.62796407 16.08568957 49.2559797 16.10986328 42.88378906 C16.11993789 40.71482406 16.13359798 38.54587269 16.15087891 36.37695312 C16.17506323 33.26428874 16.18646832 30.15180349 16.1953125 27.0390625 C16.20563507 26.065065 16.21595764 25.0910675 16.22659302 24.08755493 C16.22674408 23.18677216 16.22689514 22.28598938 16.22705078 21.35791016 C16.23371262 20.16544174 16.23371262 20.16544174 16.24050903 18.94888306 C16.17368303 16.76356509 16.17368303 16.76356509 14 15 C13.36671074 13.72235966 12.76550423 12.428584 12.1875 11.125 C9.84459421 6.33505927 7.08128626 3.92501611 2.1875 1.75 C1.465625 1.5025 0.74375 1.255 0 1 C0 0.67 0 0.34 0 0 Z " fill="#FF68C4" transform="translate(169,133)"/>
<path d="M0 0 C3.7399681 2.14578397 6.69737766 4.50030997 9.5 7.8125 C10.11875 8.39 10.7375 8.9675 11.375 9.5625 C13.24512637 13.30275273 12.66242708 16.87757603 11.5 20.8125 C9.3562352 23.47596536 7.91541539 24.5151198 4.56640625 25.21875 C0.66985559 25.51338521 -1.15891802 25.03278211 -4.5 22.875 C-7.16315173 18.79704892 -7.48851371 15.56430275 -6.5 10.8125 C-5.21937515 9.1050002 -3.8927289 7.42986259 -2.5 5.8125 C-2.63149826 3.06125747 -2.63149826 3.06125747 -3.5 0.8125 C-6.51490557 -0.19246852 -8.54181692 -0.29085303 -11.6875 -0.25 C-12.58855469 -0.24097656 -13.48960937 -0.23195312 -14.41796875 -0.22265625 C-15.44857422 -0.20525391 -15.44857422 -0.20525391 -16.5 -0.1875 C-16.768125 0.493125 -17.03625 1.17375 -17.3125 1.875 C-18.5 4.8125 -18.5 4.8125 -20.046875 7.84765625 C-22.05643112 12.54771284 -21.97713849 17.14260093 -21.9375 22.1875 C-21.95748047 23.08210938 -21.97746094 23.97671875 -21.99804688 24.8984375 C-21.99166041 33.68620728 -18.95221393 40.91705298 -13.5 47.8125 C-8.99637619 51.98659036 -5.10756356 52.4162147 0.8046875 52.21484375 C4.8120634 51.61664126 7.19967562 50.12974904 10.5 47.8125 C11.16 47.4825 11.82 47.1525 12.5 46.8125 C9.99643949 52.67161805 4.84364804 57.01935778 -0.70703125 59.99609375 C-8.27638331 62.84653443 -16.24196468 63.17524495 -23.6875 59.875 C-31.30482624 55.56376289 -36.97365662 48.96032713 -39.87890625 40.68359375 C-42.02087514 30.78203944 -41.46063523 20.47525085 -36.24609375 11.703125 C-27.89616647 -0.40085678 -14.07752907 -6.71162555 0 0 Z " fill="#FF6AC5" transform="translate(318.5,135.1875)"/>
<path d="M0 0 C5.94 0 11.88 0 18 0 C18.33 2.97 18.66 5.94 19 9 C19.639375 8.2575 20.27875 7.515 20.9375 6.75 C27.64140733 0.22153928 35.04311633 -0.4428118 44.09960938 -0.3515625 C46.06124023 -0.30128906 46.06124023 -0.30128906 48.0625 -0.25 C49.41859325 -0.22989291 50.77471547 -0.21164961 52.13085938 -0.1953125 C55.42088375 -0.14847941 58.71053749 -0.07674702 62 0 C62 5.61 62 11.22 62 17 C61.34 17 60.68 17 60 17 C59.4121875 15.1746875 59.4121875 15.1746875 58.8125 13.3125 C57.04683985 8.60684913 54.5042951 5.47862746 50.12109375 2.890625 C46.47157939 1.35823223 42.88057704 1.43037401 39 2 C36.30861457 3.44014926 36.30861457 3.44014926 35 6 C34.25229149 10.29932396 35.11528089 12.80016762 37.57763672 16.34521484 C40.49699344 19.74161029 44.21726605 22.24063686 47.8125 24.875 C64.36270436 37.01818374 64.36270436 37.01818374 66 45 C65.74420635 49.77481487 65.04221238 53.27083643 62 57 C56.90853589 61.15294538 52.51277991 62.65110108 46 63 C46.680625 62.154375 47.36125 61.30875 48.0625 60.4375 C50.24014067 57.16586262 50.24014067 57.16586262 50.1875 53.625 C47.24450458 44.64111925 39.29065148 39.70933922 31.86303711 34.47583008 C25.15158164 29.67082642 20.23703398 24.76103608 17.375 16.875 C13.86709037 7.29666519 8.77263373 4.38631687 0 0 Z " fill="#FF68C5" transform="translate(357,261)"/>
<path d="M0 0 C11.55 0 23.1 0 35 0 C35.04898438 4.22425781 35.09796875 8.44851562 35.1484375 12.80078125 C35.19297049 16.16772518 35.23946641 19.53462926 35.28729248 22.9015274 C35.33724878 26.45636684 35.38374057 30.01117453 35.421875 33.56616211 C35.46578269 37.64456014 35.5254323 41.72259545 35.5859375 45.80078125 C35.59748871 47.07585037 35.60903992 48.35091949 35.62094116 49.66462708 C35.64081085 50.84562485 35.66068054 52.02662262 35.68115234 53.2434082 C35.69447601 54.28487503 35.70779968 55.32634186 35.7215271 56.39936829 C35.82217776 59.2348051 35.82217776 59.2348051 38 62 C38.99 62.66 39.98 63.32 41 64 C32.09 64 23.18 64 14 64 C15.32 62.68 16.64 61.36 18 60 C18.61338103 57.22515782 18.61338103 57.22515782 18.54589844 54.12988281 C18.57547638 52.35849945 18.57547638 52.35849945 18.60565186 50.55133057 C18.60688049 49.28142273 18.60810913 48.01151489 18.609375 46.703125 C18.62591125 45.39921814 18.64244751 44.09531128 18.65948486 42.75189209 C18.70312939 39.29298021 18.72315054 35.83432178 18.73822021 32.37518311 C18.75780216 28.84241771 18.79977078 25.30992562 18.83984375 21.77734375 C18.91511377 14.8516656 18.96542445 7.92599758 19 1 C11.94640986 1.86963477 8.6517785 3.66721789 4 9 C2.64363456 11.33746977 1.84485325 13.41263692 1 16 C0.67 16 0.34 16 0 16 C0 10.72 0 5.44 0 0 Z " fill="#FF66C4" transform="translate(130,133)"/>
<path d="M0 0 C8.25 0 16.5 0 25 0 C24.01 1.32 23.02 2.64 22 4 C21.54164497 6.6316537 21.54164497 6.6316537 21.59594727 9.53125 C21.57692101 11.19317383 21.57692101 11.19317383 21.55751038 12.88867188 C21.56044601 14.08041016 21.56338165 15.27214844 21.56640625 16.5 C21.55854347 18.34174805 21.55854347 18.34174805 21.55052185 20.22070312 C21.54409901 22.81639856 21.54544199 25.41212308 21.55395508 28.0078125 C21.56246768 31.98490041 21.53369979 35.96055392 21.50195312 39.9375 C21.50034116 42.4583329 21.50091855 44.97916835 21.50390625 47.5 C21.49267227 48.69173828 21.48143829 49.88347656 21.46986389 51.11132812 C21.47924484 52.21927734 21.48862579 53.32722656 21.49829102 54.46875 C21.49845718 55.44263672 21.49862335 56.41652344 21.49879456 57.41992188 C21.87003974 60.61575864 21.87003974 60.61575864 26 64 C17.42 64 8.84 64 0 64 C1.32 63.34 2.64 62.68 4 62 C4.02314652 54.47228843 4.04092691 46.94458053 4.05181217 39.41684151 C4.05703593 35.92159902 4.06412441 32.42638084 4.07543945 28.93115234 C4.08835974 24.91503666 4.0932324 20.8989466 4.09765625 16.8828125 C4.10281754 15.62445587 4.10797882 14.36609924 4.11329651 13.0696106 C4.11340981 11.32803177 4.11340981 11.32803177 4.11352539 9.55126953 C4.115746 8.52534698 4.11796661 7.49942444 4.12025452 6.44241333 C4.16394031 3.99230743 4.16394031 3.99230743 3 2 C2.01 1.34 1.02 0.68 0 0 Z " fill="#FF66C4" transform="translate(358,133)"/>
<path d="M0 0 C8.25 0 16.5 0 25 0 C24.67 0.66 24.34 1.32 24 2 C23.34 2 22.68 2 22 2 C21.90726996 9.49305014 21.83622 16.9860407 21.79275131 24.47953415 C21.77188692 27.9592187 21.74359179 31.43851033 21.69824219 34.91796875 C21.64641773 38.91930893 21.62704547 42.92023719 21.609375 46.921875 C21.58872986 48.16990906 21.56808472 49.41794312 21.54681396 50.70379639 C21.54636078 52.44514862 21.54636078 52.44514862 21.54589844 54.22167969 C21.53701599 55.24316101 21.52813354 56.26464233 21.51898193 57.31707764 C21.84515512 60.60678473 21.84515512 60.60678473 26 64 C17.42 64 8.84 64 0 64 C1.32 63.34 2.64 62.68 4 62 C4.09265347 54.35929258 4.16374109 46.71864335 4.20724869 39.07750225 C4.22812977 35.52941238 4.25645545 31.98170665 4.30175781 28.43383789 C4.35350697 24.35559387 4.37294074 20.27775374 4.390625 16.19921875 C4.41127014 14.92414963 4.43191528 13.64908051 4.45318604 12.33537292 C4.45348816 11.15437515 4.45379028 9.97337738 4.45410156 8.7565918 C4.46298401 7.71512497 4.47186646 6.67365814 4.48101807 5.60063171 C4.20106812 2.44503987 4.20106812 2.44503987 0 0 Z " fill="#FF66C4" transform="translate(328,133)"/>
<path d="M0 0 C7.50059295 0 8.30939665 0.19326192 13.203125 4.859375 C21.83720751 15.14519503 20.85362133 29.39835556 20 42 C18.59080547 49.85243942 14.84046786 55.61986458 9 61 C7 62 7 62 0 62 C0 41.54 0 21.08 0 0 Z " fill="#FFFEFE" transform="translate(217,262)"/>
<path d="M0 0 C5.61 0 11.22 0 17 0 C17 21.12 17 42.24 17 64 C11.06 64 5.12 64 -1 64 C-0.67 63.01 -0.34 62.02 0 61 C0.08888831 59.02157239 0.11760873 57.04023366 0.11352539 55.05981445 C0.11344986 53.83877518 0.11337433 52.6177359 0.11329651 51.35969543 C0.10555458 49.38147041 0.10555458 49.38147041 0.09765625 47.36328125 C0.0957908 45.99993441 0.0943675 44.63658689 0.09336853 43.27323914 C0.08955332 39.68771509 0.07973155 36.10223165 0.06866455 32.51672363 C0.05842901 28.8568578 0.05386632 25.1969854 0.04882812 21.53710938 C0.03810838 14.35805227 0.02051965 7.179037 0 0 Z " fill="#FF67C4" transform="translate(335,261)"/>
<path d="M0 0 C7.19636206 -0.47622984 13.06312626 -0.45614758 19 4 C22.52730738 7.61549006 23.28488754 10.53024708 23.5 15.4375 C23.28962297 20.76946956 22.25482518 23.77752409 19 28 C16.25 29.9375 16.25 29.9375 14 31 C14.66386719 31.268125 15.32773438 31.53625 16.01171875 31.8125 C21.59013766 34.28817788 25.32351869 36.47646078 28.2265625 41.953125 C29.90686216 46.39997865 29.45303603 49.7415666 27.875 54.125 C24.66989347 59.03949668 20.62584633 62.34577763 15 64 C11.55815414 64.23634993 8.13529157 64.18835165 4.6875 64.125 C3.29047852 64.11146484 3.29047852 64.11146484 1.86523438 64.09765625 C-0.4234436 64.07418263 -2.71158672 64.04134729 -5 64 C-5 63.67 -5 63.34 -5 63 C-3.96939453 62.85304688 -3.96939453 62.85304688 -2.91796875 62.703125 C-2.01691406 62.55359375 -1.11585937 62.4040625 -0.1875 62.25 C0.70582031 62.11078125 1.59914063 61.9715625 2.51953125 61.828125 C5.55907103 60.81334951 6.39787571 59.72917071 8 57 C10.08582943 50.74251171 10.1346802 43.39543597 7.3125 37.4375 C5.01937621 35.02042358 2.70039807 32.95028749 0 31 C0.928125 30.13375 0.928125 30.13375 1.875 29.25 C5.84501684 25.04645275 6.29391354 21.88680303 6.3125 16.125 C6.32925781 14.93132812 6.34601563 13.73765625 6.36328125 12.5078125 C5.82677828 7.32738597 3.97764043 3.40940608 0 0 Z " fill="#FF69C5" transform="translate(119,261)"/>
<path d="M0 0 C8.25 0 16.5 0 25 0 C24.01 1.32 23.02 2.64 22 4 C21.56116237 6.69485656 21.56116237 6.69485656 21.64355469 9.6706543 C21.64055359 10.80830734 21.63755249 11.94596039 21.63446045 13.11808777 C21.64680725 14.34111099 21.65915405 15.56413422 21.671875 16.82421875 C21.67374817 18.08136185 21.67562134 19.33850494 21.67755127 20.63374329 C21.68427286 23.28942219 21.69654152 25.94433291 21.71875 28.59985352 C21.74711839 32.009775 21.75797099 35.4194576 21.7624321 38.82948589 C21.7675761 42.07775993 21.78211328 45.3259761 21.796875 48.57421875 C21.80112488 49.80331467 21.80537476 51.03241058 21.80975342 52.29875183 C21.81936096 53.42694839 21.82896851 54.55514496 21.83886719 55.7175293 C21.84910919 57.21499947 21.84910919 57.21499947 21.85955811 58.74272156 C21.74809926 60.96871017 21.74809926 60.96871017 23 62 C24.85287502 62.07226502 26.70833878 62.0838122 28.5625 62.0625 C29.57441406 62.05347656 30.58632812 62.04445313 31.62890625 62.03515625 C32.41136719 62.02355469 33.19382813 62.01195312 34 62 C31.45593438 64.54406562 30.40748394 64.32580106 26.875 64.375 C20.44591868 64.23213153 15.95797102 62.78009748 11.24609375 58.3515625 C5.35935687 51.85487457 4.71759642 46.30869098 4.7265625 37.7734375 C4.70628611 35.7525985 4.68543558 33.7317652 4.6640625 31.7109375 C4.64139924 28.53315397 4.62496444 25.35559522 4.61914062 22.17773438 C4.6096512 19.10505899 4.5759328 16.03338889 4.5390625 12.9609375 C4.54410797 12.00778656 4.54915344 11.05463562 4.55435181 10.07260132 C4.53445694 8.74574814 4.53445694 8.74574814 4.51416016 7.39208984 C4.51131012 6.61441254 4.50846008 5.83673523 4.50552368 5.03549194 C4.07878336 2.40096849 4.07878336 2.40096849 0 0 Z " fill="#FF68C4" transform="translate(144,261)"/>
<path d="M0 0 C2 1 2 1 2.96614075 3.29524231 C3.30191635 4.31132065 3.63769196 5.32739899 3.98364258 6.37426758 C4.3677681 7.52248489 4.75189362 8.67070221 5.1476593 9.85371399 C5.55912704 11.10468369 5.97059479 12.35565338 6.39453125 13.64453125 C6.82698639 14.93426763 7.26057041 16.22362599 7.69523621 17.51261902 C9.54205794 22.9940858 11.37344336 28.48058317 13.18774414 33.97290039 C14.29787891 37.33100016 15.42390421 40.68342194 16.55985069 44.03287315 C17.19716723 45.92770414 17.81648545 47.82855808 18.4355011 49.72944641 C18.8290831 50.88712021 19.2226651 52.04479401 19.62817383 53.23754883 C19.96633621 54.25601395 20.3044986 55.27447906 20.65290833 56.32380676 C22.0898942 59.64129402 22.0898942 59.64129402 27 63 C17.76 63 8.52 63 -1 63 C0.32 61.68 1.64 60.36 3 59 C1.98714202 50.19861342 -1.88194058 41.8051558 -5.07421875 33.59375 C-7.61861448 26.63527478 -8.68958647 21.98794411 -6 15 C-5.63165039 13.96141846 -5.63165039 13.96141846 -5.25585938 12.90185547 C-4.51073504 10.88992448 -3.7073231 8.91476517 -2.875 6.9375 C-2.59785156 6.26267578 -2.32070312 5.58785156 -2.03515625 4.89257812 C-1.36321054 3.25905493 -0.68255556 1.62911847 0 0 Z " fill="#FF69C5" transform="translate(254,134)"/>
<path d="M0 0 C22.44 0 44.88 0 68 0 C68.495 4.95 68.495 4.95 69 10 C68.34 10.33 67.68 10.66 67 11 C67 7.7 67 4.4 67 1 C59.74 1.33 52.48 1.66 45 2 C45 11.9 45 21.8 45 32 C51.24374629 30.68387607 51.24374629 30.68387607 54.8125 27 C57 24 57 24 59 22 C59 29.26 59 36.52 59 44 C55 39 55 39 55 37 C51.7 36.01 48.4 35.02 45 34 C45 43.9 45 53.8 45 64 C53.44446545 62.17210879 53.44446545 62.17210879 60 58 C60.66 58 61.32 58 62 58 C63.5349172 55.06599899 64.7296868 52.10465066 65.875 49 C68.59352482 42.23854083 68.59352482 42.23854083 72 40 C76.45836659 38.67900249 78.23769058 38.59061161 82.375 40.8125 C85 43 85 43 86 45 C86.5893186 52.18968692 86.5893186 52.18968692 84 55.75 C83.34 56.4925 82.68 57.235 82 58 C82 59.32 82 60.64 82 62 C85.71530327 63.23843442 88.84323358 62.98226015 92.72265625 62.83984375 C95 63 95 63 97 65 C88.00453811 65.50758092 79.61736323 65.4862652 72.2734375 59.62109375 C70.875 58.25 70.875 58.25 69 56 C68.67 58.97 68.34 61.94 68 65 C60.08 65 52.16 65 44 65 C44 43.88 44 22.76 44 1 C29.48 1 14.96 1 0 1 C0 0.67 0 0.34 0 0 Z " fill="#FF6EC7" transform="translate(308,260)"/>
<path d="M0 0 C1.32 0.66 2.64 1.32 4 2 C4 21.14 4 40.28 4 60 C2.68 60.66 1.36 61.32 0 62 C-2.83587264 58.8118791 -3.37764675 56.77895431 -3.38818359 52.54467773 C-3.39764008 51.45352158 -3.40709656 50.36236542 -3.4168396 49.23814392 C-3.41076691 48.06514236 -3.40469421 46.89214081 -3.3984375 45.68359375 C-3.40130768 44.47558609 -3.40417786 43.26757843 -3.40713501 42.02296448 C-3.40917604 39.47013887 -3.40364352 36.91729763 -3.39111328 34.36450195 C-3.3750473 30.44902747 -3.39096893 26.53458314 -3.41015625 22.61914062 C-3.4081741 20.14062271 -3.40433101 17.66210545 -3.3984375 15.18359375 C-3.40451019 14.00856796 -3.41058289 12.83354218 -3.4168396 11.62290955 C-3.40265488 9.99090355 -3.40265488 9.99090355 -3.38818359 8.32592773 C-3.38579681 7.3675853 -3.38341003 6.40924286 -3.38095093 5.42185974 C-2.93943487 2.61496288 -2.1932255 1.73457437 0 0 Z " fill="#FFF6FB" transform="translate(332,262)"/>
<path d="M0 0 C7.90662651 0 7.90662651 0 10.3125 2.25 C14.53304222 6.56869436 15.2914075 9.34254399 15.3125 15.375 C15.21038504 21.44743657 14.44158652 25.28712609 10.3125 29.875 C8 31 8 31 0 31 C0 20.77 0 10.54 0 0 Z " fill="#FFFDFE" transform="translate(114,293)"/>
<path d="M0 0 C6 0 6 0 8.25 1.75 C13.08592838 7.9676222 12.73112194 14.34062731 12 22 C10.81459014 25.48913092 9.42308101 28.28845949 6 30 C4.02 30 2.04 30 0 30 C0 20.1 0 10.2 0 0 Z " fill="#FFFCFE" transform="translate(114,262)"/>
<path d="M0 0 C2.85450505 1.42725252 2.92038932 3.07360035 3.9453125 6.05859375 C4.29980469 7.08404297 4.65429688 8.10949219 5.01953125 9.16601562 C5.38433594 10.24560547 5.74914062 11.32519531 6.125 12.4375 C6.68380859 14.05108398 6.68380859 14.05108398 7.25390625 15.69726562 C10 23.70922047 10 23.70922047 10 26 C4.06 26 -1.88 26 -8 26 C-8 28.31 -8 30.62 -8 33 C-9.46909477 30.67262883 -10.08288155 29.50795883 -9.63208008 26.74511719 C-9.34743896 25.93719727 -9.06279785 25.12927734 -8.76953125 24.296875 C-8.46080078 23.39839844 -8.15207031 22.49992187 -7.83398438 21.57421875 C-7.49689453 20.64222656 -7.15980469 19.71023437 -6.8125 18.75 C-6.49474609 17.83347656 -6.17699219 16.91695312 -5.84960938 15.97265625 C-3.98181572 10.61755053 -2.01040418 5.30298565 0 0 Z " fill="#FFEBF7" transform="translate(245,157)"/>
<path d="M0 0 C22.44 0 44.88 0 68 0 C68.495 4.95 68.495 4.95 69 10 C68.34 10.33 67.68 10.66 67 11 C67 7.7 67 4.4 67 1 C59.74 1.33 52.48 1.66 45 2 C45 11.9 45 21.8 45 32 C51.24374629 30.68387607 51.24374629 30.68387607 54.8125 27 C57 24 57 24 59 22 C59 29.26 59 36.52 59 44 C55 39 55 39 55 37 C51.7 36.01 48.4 35.02 45 34 C45 43.9 45 53.8 45 64 C44.67 64 44.34 64 44 64 C44 43.21 44 22.42 44 1 C29.48 1 14.96 1 0 1 C0 0.67 0 0.34 0 0 Z " fill="#FFD0ED" transform="translate(308,260)"/>
<path d="M0 0 C6.6 0 13.2 0 20 0 C20 19.14 20 38.28 20 58 C19.67 58 19.34 58 19 58 C19 39.19 19 20.38 19 1 C11.40727707 2.0846747 8.83969494 3.45179116 4 9 C2.64363456 11.33746977 1.84485325 13.41263692 1 16 C0.67 16 0.34 16 0 16 C0 10.72 0 5.44 0 0 Z " fill="#FF75C9" transform="translate(130,133)"/>
<path d="M0 0 C9.57 0 19.14 0 29 0 C29 5.61 29 11.22 29 17 C28.34 17 27.68 17 27 17 C26.608125 15.783125 26.21625 14.56625 25.8125 13.3125 C24.04475501 8.60129282 21.49514726 5.49189013 17.125 2.87890625 C14.73007925 1.88835998 13.01845094 1.764462 10.4375 1.8125 C9.67308594 1.81894531 8.90867187 1.82539063 8.12109375 1.83203125 C5.81102284 1.92946495 5.81102284 1.92946495 3 3 C3 2.34 3 1.68 3 1 C2.01 0.67 1.02 0.34 0 0 Z " fill="#FF80CE" transform="translate(390,261)"/>
<path d="M0 0 C0.33 0 0.66 0 1 0 C1 7.26 1 14.52 1 22 C-1 21 -1 21 -2.375 18.625 C-5.31461676 13.87638831 -8.74184135 12.55354687 -14 11 C-14 10.67 -14 10.34 -14 10 C-12.14375 9.6596875 -12.14375 9.6596875 -10.25 9.3125 C-6.0446284 8.27230208 -4.35334102 6.71103776 -2 3 C-1.34 2.01 -0.68 1.02 0 0 Z " fill="#FF7ACB" transform="translate(216,154)"/>
<path d="M0 0 C0.33 0 0.66 0 1 0 C1 7.26 1 14.52 1 22 C-3 17 -3 17 -3 15 C-3.78375 14.690625 -4.5675 14.38125 -5.375 14.0625 C-8 13 -8 13 -10 12 C-10 11.34 -10 10.68 -10 10 C-9.0925 9.4225 -8.185 8.845 -7.25 8.25 C-3.77797765 5.84629222 -2.18512847 3.5609501 0 0 Z " fill="#FF71C8" transform="translate(366,282)"/>
</svg>
